<svg version="1.1" id="Layer_1" xmlns="http://www.w3.org/2000/svg" xmlns:xlink="http://www.w3.org/1999/xlink" x="0px" y="0px"
	 width="100%" viewBox="480 0 544 544" enable-background="new 480 0 544 544" xml:space="preserve">
<path fill="#000000" opacity="1.000000" stroke="none" 
	d="
M822.880127,423.563080 
	C823.541443,430.629028 825.485046,437.153900 823.721313,444.129761 
	C822.768799,447.896881 820.964233,449.935028 817.757751,451.306458 
	C816.084045,452.022369 814.408203,452.750580 812.685608,453.331940 
	C805.270508,455.834442 805.795227,463.263092 803.423096,468.733002 
	C801.898376,472.248993 800.366516,475.149292 796.987854,477.172943 
	C793.048889,479.532166 790.851013,483.643341 787.958740,487.072662 
	C781.852539,494.312866 775.571289,501.634460 766.398193,505.026978 
	C759.359619,507.630096 752.294373,510.141266 744.261963,508.562653 
	C738.193054,507.369965 732.171204,510.209900 726.329712,511.875671 
	C719.975342,513.687683 712.129089,510.501190 709.937073,504.385864 
	C709.497559,503.159729 708.697266,502.064575 708.080688,500.899811 
	C707.355469,499.529724 706.557190,497.508850 707.717712,496.705658 
	C713.063782,493.005707 709.071533,490.498627 706.982666,487.520996 
	C705.366394,485.217255 704.136353,482.644562 702.701477,480.210999 
	C701.418945,478.035797 699.952576,475.907532 697.672241,474.763580 
	C690.453674,471.142456 688.589478,464.498840 686.625854,457.373810 
	C684.329468,449.041077 682.913574,440.392365 677.642456,432.917419 
	C673.684204,427.304199 669.478516,422.074921 664.956116,416.915375 
	C660.011414,411.273987 659.538879,403.643372 660.486694,396.336609 
	C661.015625,392.258667 662.683228,388.340942 663.587097,384.295074 
	C664.271179,381.233124 665.650513,378.768158 668.010620,376.692719 
	C672.023865,373.163483 673.484863,369.087616 671.134644,363.776581 
	C666.335022,352.930328 665.370605,340.499237 656.721313,331.097961 
	C658.769043,329.612122 660.167908,328.597107 661.528381,327.609924 
	C665.516235,330.940552 670.028564,333.820587 667.018372,340.006409 
	C666.837585,340.377899 666.937317,341.168152 667.218994,341.441010 
	C673.285156,347.317871 670.164734,356.355438 674.950073,363.001312 
	C678.734131,368.256592 676.826050,373.909668 671.994385,378.613403 
	C671.048889,379.533844 669.940063,380.515717 669.501526,381.691193 
	C666.310242,390.245026 663.167480,398.768463 665.465881,408.258667 
	C666.272400,411.589264 669.712646,411.651550 671.077393,414.240051 
	C674.023621,419.827789 677.607544,424.982880 682.036133,429.616058 
	C685.768311,433.520599 687.493591,438.501221 688.515381,443.946960 
	C689.850708,451.063934 691.994995,458.053375 694.171448,464.978210 
	C695.280212,468.506042 698.053406,470.454834 701.983032,469.402039 
	C704.089111,468.837799 705.449158,469.540039 706.828979,470.989502 
	C709.113831,473.389465 711.974731,474.084961 715.027344,472.823120 
	C718.419800,471.420868 718.536377,468.210907 718.506226,465.202606 
	C718.409546,455.554230 717.581787,445.915253 718.536987,436.254669 
	C718.796326,433.631500 719.170410,431.715332 722.293152,431.502106 
	C723.627747,431.410950 724.461731,430.221893 724.235779,429.006317 
	C723.005188,422.385986 725.417908,415.761627 724.301208,409.211823 
	C712.427063,406.182678 700.676941,403.912567 688.496033,405.126160 
	C686.199524,405.354980 683.519226,405.980011 681.282776,403.226410 
	C683.738586,401.968475 686.032532,402.773621 688.164185,402.628784 
	C693.625305,402.257690 699.098633,402.036011 704.570435,401.860291 
	C711.956482,401.623077 718.354919,406.524078 725.877502,405.935883 
	C729.146545,405.680298 732.505249,406.304657 735.837524,403.360168 
	C726.723328,395.526581 732.160522,385.278320 731.096069,376.054230 
	C730.582703,371.606079 734.945190,371.709625 738.019653,371.661682 
	C744.658203,371.558136 747.310974,367.610077 744.693848,361.391388 
	C743.618774,358.836761 741.532471,359.266418 739.606201,359.785309 
	C734.808899,361.077484 732.622070,359.312103 732.850220,354.393799 
	C732.939026,352.479401 732.279907,350.757904 731.168030,349.262268 
	C729.220154,346.641968 729.032593,343.944000 729.804993,340.776428 
	C731.160828,335.216125 724.626526,328.999908 719.169006,330.424988 
	C718.577576,330.579468 717.705383,331.050201 717.610718,331.508057 
	C716.082275,338.900055 709.668457,336.561737 705.155457,337.577087 
	C701.352600,338.432648 700.127014,334.800842 698.945984,332.199432 
	C694.891296,323.268402 694.989990,323.255951 684.986206,323.389709 
	C679.784851,323.459290 674.585999,324.522888 668.859253,323.854279 
	C670.721252,319.954865 673.778198,320.243439 676.636292,320.281219 
	C681.794678,320.349426 686.988159,320.971100 692.098511,320.543457 
	C696.975281,320.135376 699.121216,321.935974 700.017517,326.537842 
	C701.439148,333.836823 702.977173,334.672272 710.188416,333.877228 
	C712.642212,333.606689 713.760986,332.404907 714.356140,330.326172 
	C714.989319,328.114502 716.482971,327.124084 718.693604,326.817627 
	C723.547974,326.144775 727.156311,329.741211 731.518066,330.858704 
	C733.443848,331.352173 733.564392,337.083466 732.942078,340.022186 
	C732.121460,343.897522 732.774963,346.845428 734.918152,349.784485 
	C736.464905,351.905579 735.515381,354.706360 737.172241,357.424286 
	C742.785889,355.367310 748.293396,357.399170 753.913696,358.389893 
	C755.534485,358.675629 756.456482,359.370361 757.438843,360.703461 
	C760.181702,364.425568 765.323059,365.464844 769.303162,363.329803 
	C770.593262,362.637787 772.336853,362.085632 772.884521,363.364288 
	C774.841675,367.933624 780.908081,368.274628 782.494568,373.122559 
	C782.873840,374.281342 784.005737,374.998871 785.323303,374.579987 
	C786.899780,374.078766 786.999207,372.713470 786.883850,370.918610 
	C783.246643,370.096222 779.615112,368.872345 778.983093,364.273438 
	C778.915466,363.781036 778.496338,363.133392 778.683228,362.839630 
	C782.611633,356.666016 779.774353,348.923767 783.351807,342.712921 
	C785.488159,339.003967 789.345520,339.021088 792.965027,338.600647 
	C794.686707,338.400635 796.980469,339.320801 797.818237,337.111481 
	C798.549255,335.183716 796.870422,333.790771 795.859314,332.262726 
	C793.501587,328.699829 790.935181,325.278717 791.233093,320.516449 
	C791.384949,318.089600 790.274475,315.694916 789.071228,313.429810 
	C787.928589,311.278870 786.861267,308.874969 788.845520,306.579803 
	C790.719604,306.366974 790.093750,309.000671 791.989380,308.826752 
	C793.495667,308.472046 794.010925,306.935333 794.565613,305.604919 
	C795.267273,303.921844 797.992493,302.474670 796.050293,300.418945 
	C794.630310,298.915833 792.519409,299.999207 790.954468,300.856293 
	C789.540344,301.630829 788.499695,301.750153 787.525513,300.394226 
	C786.223328,298.581909 784.645508,296.017059 786.135376,294.461761 
	C791.088562,289.291382 790.100342,282.395294 792.201416,276.440918 
	C792.587891,275.345673 792.862610,273.868256 793.687561,273.326294 
	C798.975647,269.852356 797.840393,265.177185 796.922913,260.106659 
	C796.059143,255.332901 790.527283,250.598969 785.625183,250.795456 
	C780.206482,251.012665 775.279663,250.481918 770.788635,245.964615 
	C766.042114,241.190445 759.155701,239.654205 752.449280,241.504013 
	C749.064880,242.437531 745.601318,242.372009 742.260986,243.397324 
	C739.854187,244.136047 737.603088,244.510635 735.876648,246.755219 
	C734.428894,248.637497 725.169006,247.184113 721.927063,244.934265 
	C718.057678,242.248978 713.734863,243.563705 713.561157,248.123962 
	C713.333618,254.097229 711.371399,259.457825 709.721252,264.995483 
	C708.670593,268.521240 708.331665,272.160248 708.154907,275.842377 
	C707.974976,279.588867 706.780823,282.637573 703.267578,285.050812 
	C699.312073,287.767853 697.135986,292.248962 697.342712,297.145691 
	C697.695801,305.508026 691.257935,309.213409 686.460449,314.092896 
	C686.152161,314.406372 685.403870,314.716797 685.118103,314.559692 
	C678.816101,311.095062 673.991821,314.928009 668.955811,318.173859 
	C669.036926,312.577820 671.869995,311.242340 676.340271,310.216797 
	C680.677795,309.221710 685.647278,310.754944 689.521912,307.132202 
	C693.201660,303.691742 694.850098,299.867310 694.786011,294.786926 
	C694.729370,290.306793 696.939087,286.045898 700.449646,283.542389 
	C704.138977,280.911346 705.162964,277.632111 705.210083,273.744751 
	C705.273987,268.472595 706.621460,263.595703 708.697144,258.822357 
	C709.447327,257.097198 710.955200,254.872726 708.121643,253.745026 
	C705.545837,252.719925 702.713440,252.629990 701.103699,255.567154 
	C699.991638,257.596161 699.078003,259.787628 698.443359,262.011383 
	C697.602112,264.959381 696.051270,265.349976 693.209106,264.721527 
	C689.696655,263.945038 686.026306,263.854248 682.416626,263.561432 
	C681.175171,263.460693 680.195679,264.048889 679.790527,265.087952 
	C679.987427,266.753510 681.080688,266.565399 682.049500,266.772552 
	C686.259705,267.672974 687.588135,270.308899 685.241760,274.003082 
	C683.904236,276.108765 684.040771,277.409973 684.914001,279.720703 
	C686.585449,284.143250 685.709412,288.822998 683.963806,293.217133 
	C682.560974,296.748474 679.203430,294.896210 676.949890,295.231873 
	C669.565002,296.331909 668.842529,296.724609 669.110840,303.592773 
	C669.119995,303.828979 668.719727,304.081085 668.506775,304.322754 
	C663.733032,301.030060 663.813538,297.412018 667.870422,294.189240 
	C671.028259,291.680573 673.221069,289.718445 677.854675,291.565796 
	C681.474731,293.009064 683.867615,288.218811 682.693176,282.448578 
	C682.693176,282.448578 682.877502,270.488800 682.883545,270.095978 
	C679.257874,269.952881 674.413940,270.805542 676.620911,263.995239 
	C672.047668,264.146057 667.479370,262.546143 667.131226,269.149536 
	C667.024475,271.174194 665.704041,272.287903 663.456238,272.453827 
	C660.527283,272.670044 657.415710,272.419342 655.064026,274.912384 
	C654.204407,275.823761 653.183350,275.335693 652.624817,274.316315 
	C652.029114,273.229004 652.512451,272.238037 653.515442,271.846985 
	C655.364014,271.126251 657.276733,270.487732 659.219910,270.107239 
	C664.979004,268.979553 665.228088,268.665344 663.617004,262.279266 
	C668.870728,261.904694 673.857605,260.403809 679.185974,260.871307 
	C684.412720,261.329865 689.671326,261.426025 694.958862,261.683319 
	C696.266296,260.087738 695.730225,258.539459 694.674805,257.147064 
	C691.416321,252.848068 689.506287,247.912689 687.380188,243.013016 
	C685.830627,239.442032 686.324036,236.742188 688.217041,233.691238 
	C693.704895,224.846481 693.245911,221.680954 686.721863,216.537720 
	C683.908508,214.319809 683.834473,211.269470 687.309753,209.776764 
	C691.721619,207.881805 690.803955,204.892685 690.079834,201.212509 
	C686.323669,201.747253 684.407410,203.968857 683.580811,207.198761 
	C681.700928,214.544708 677.810791,220.730515 672.738831,226.762390 
	C670.510376,224.249954 671.985779,222.244507 673.330261,220.595428 
	C676.945862,216.160965 679.476074,211.268616 680.757141,205.680725 
	C681.167603,203.890305 682.118042,202.157028 683.698120,201.150787 
	C686.659668,199.264771 686.635864,197.501923 685.345215,194.148361 
	C683.384277,189.053024 681.614563,186.259064 675.945374,189.714676 
	C674.940857,190.326965 672.997803,189.695618 671.588440,189.290039 
	C667.848999,188.213943 664.413940,188.185043 661.323669,191.021896 
	C659.882263,192.345062 658.047241,192.497559 656.142883,192.034424 
	C652.397400,191.123489 648.961487,188.655121 644.677673,190.523773 
	C643.234314,191.153366 641.858276,189.178299 640.576660,188.102936 
	C635.754700,184.057251 629.965515,185.422089 627.018188,191.009583 
	C624.854431,195.111542 623.407166,199.167603 624.928955,203.882050 
	C625.823608,206.653351 624.185730,209.192047 623.046692,211.453491 
	C621.291504,214.938629 617.444885,217.685638 617.780701,221.844238 
	C618.109253,225.911575 616.883850,229.728821 616.981995,234.096054 
	C620.630432,234.090469 624.281982,234.183456 627.342773,236.570480 
	C628.527710,237.494614 629.937927,238.186874 630.383057,239.738251 
	C630.767212,241.077255 631.975281,242.826141 629.991333,243.645859 
	C628.132874,244.413727 627.250305,243.029053 627.198303,241.258270 
	C627.130493,238.945587 625.465820,237.682953 623.705139,237.675430 
	C618.293152,237.652237 612.587097,236.656143 607.598267,239.297516 
	C601.124268,242.725220 594.066772,244.597305 587.437012,247.587967 
	C583.958557,249.157135 581.565735,246.178101 580.324341,243.681534 
	C579.169495,241.358978 579.465271,238.315094 579.059326,235.087265 
	C582.297729,236.378967 582.316101,239.111420 583.093079,241.247314 
	C584.138184,244.120422 585.578857,245.289703 588.701904,243.832916 
	C593.343201,241.667984 598.119446,239.792282 603.431213,237.542297 
	C599.192810,231.595551 602.211914,225.885422 602.980225,218.885284 
	C605.263916,222.560120 604.555603,225.398804 604.083618,227.973572 
	C603.568054,230.786621 603.283203,233.134750 606.685242,235.035889 
	C608.414429,226.215317 610.433105,217.982193 605.532471,209.743011 
	C601.722595,203.337738 601.943420,203.094910 594.624146,204.922455 
	C591.778931,205.632874 588.161194,203.991013 586.138489,206.723816 
	C583.911499,209.732681 585.379883,213.539886 585.377991,216.961838 
	C585.373413,225.179764 585.531128,225.179855 580.392090,232.283157 
	C578.490540,229.781281 580.042786,227.776505 581.212402,226.103607 
	C583.101257,223.401993 583.250244,220.656372 582.670349,217.574631 
	C581.786804,212.879364 580.584717,212.048676 575.932983,213.744873 
	C572.931091,214.839447 570.436829,214.730988 568.474792,211.862930 
	C567.281250,210.118271 565.778564,209.785980 563.465576,209.707718 
	C559.962097,209.589127 556.841064,211.265976 553.326416,210.863388 
	C551.036316,210.601089 549.582031,212.327789 550.343079,214.849411 
	C551.673218,219.256958 550.949036,222.981094 548.489014,227.061081 
	C546.248962,230.776215 544.733154,235.536316 550.318604,238.585968 
	C550.676270,238.781265 550.866150,239.396225 550.995056,239.855026 
	C551.069092,240.118576 550.863037,240.460846 550.777588,240.766235 
	C543.566162,239.146973 541.316650,235.013062 545.037598,227.186523 
	C549.230408,218.367569 547.286133,210.271667 544.299927,201.965271 
	C543.700745,200.298691 542.509460,198.758499 540.547363,199.622513 
	C533.952087,202.526733 527.497131,200.350327 521.179138,198.952194 
	C517.040527,198.036362 514.394165,198.054840 513.480530,202.792130 
	C513.407715,203.169601 512.466675,203.379623 511.828461,203.721344 
	C510.970551,195.825745 513.171753,193.183472 519.911316,195.323959 
	C525.338928,197.047791 527.422485,195.963562 527.081177,190.286377 
	C530.094116,190.812912 529.904053,192.546188 529.526062,194.481567 
	C528.984253,197.255585 530.431274,198.044098 532.950073,197.834991 
	C535.791443,197.599121 538.634888,197.301529 541.071228,195.724503 
	C543.896057,193.896011 545.313721,194.934753 546.165283,197.793015 
	C546.544495,199.065689 547.069641,200.297836 547.574219,201.529694 
	C550.526306,208.737457 550.528198,208.728241 558.301025,205.885605 
	C558.911194,205.662460 559.773193,205.324051 560.217957,205.573776 
	C566.079224,208.864944 566.622742,204.153046 567.381470,200.576981 
	C567.919861,198.039276 568.861023,196.262787 571.244507,195.261597 
	C571.685791,195.076263 572.252991,194.724411 572.380615,194.326935 
	C575.526550,184.531403 585.497986,183.398071 592.498901,178.539200 
	C595.829956,176.227341 599.769043,174.967392 603.878479,176.037949 
	C608.079529,177.132416 611.112244,174.033279 614.872498,173.455994 
	C626.611450,171.653763 627.753967,170.133682 628.716980,157.899170 
	C628.883789,155.780884 629.233643,153.677032 629.539429,151.243942 
	C626.533508,150.812637 622.730591,151.330978 624.032715,146.479294 
	C624.182190,145.922256 623.455750,144.909073 622.875305,144.409897 
	C611.018738,134.213165 599.758545,123.287079 586.638123,114.629402 
	C582.822510,112.111588 578.874573,113.712921 575.054077,114.496643 
	C573.398193,114.836319 573.427002,116.773026 573.355896,118.307289 
	C572.692810,132.607391 572.012085,146.906708 571.325073,161.205688 
	C571.220154,163.388962 571.506897,165.378708 572.481995,167.463348 
	C574.501099,171.779678 572.164917,175.564606 567.376648,175.863403 
	C562.057739,176.195328 556.677124,176.679993 551.398499,176.225510 
	C544.814453,175.658661 538.791382,179.673080 532.186462,178.069275 
	C531.846436,177.986710 531.349365,178.471298 530.949097,178.728668 
	C524.344727,182.975174 521.025818,181.448593 518.566650,172.712585 
	C520.807007,173.191544 522.129761,174.609879 523.209534,176.179169 
	C525.076782,178.893066 526.870117,178.775375 528.663025,176.233109 
	C530.329651,173.869980 532.023254,172.460281 534.690430,175.063919 
	C535.169800,175.531845 536.379944,175.747787 537.010437,175.489243 
	C545.771606,171.896805 555.029175,174.083176 564.014404,173.147018 
	C570.127563,172.510132 569.910889,172.514496 569.075867,166.536835 
	C568.277893,160.824112 568.706665,154.902908 568.958923,149.089081 
	C569.369934,139.614075 570.228943,130.158051 570.611511,120.682404 
	C570.945740,112.403328 570.770630,112.396255 578.038635,109.903481 
	C578.232788,107.346985 574.590881,107.312416 574.658813,104.551750 
	C576.880981,103.558609 578.343018,105.337265 579.744141,106.354073 
	C590.934753,114.475334 602.898865,121.817314 612.806885,131.298935 
	C617.796021,136.073303 624.172913,139.977798 627.619690,146.417969 
	C628.190735,147.484680 629.159058,147.638870 630.167786,147.557495 
	C634.347839,147.220306 638.713013,146.891495 641.810669,143.781403 
	C649.221680,136.340698 658.662476,131.945740 667.228271,126.239532 
	C669.250183,124.892632 672.133789,123.915779 671.679077,120.835274 
	C671.225037,117.758896 668.670349,116.611244 665.820496,116.392143 
	C663.367737,116.203568 662.284424,114.847603 661.992432,112.590981 
	C661.971008,112.425911 662.019043,112.225731 661.941956,112.097794 
	C658.954651,107.139435 659.816833,102.031525 660.670715,96.631233 
	C661.953125,88.520302 659.610596,80.494209 658.299194,72.550812 
	C657.720886,69.048454 654.551514,66.022911 652.813965,62.649326 
	C651.032593,59.190830 652.071228,56.618721 655.798889,55.095234 
	C653.449158,58.802280 655.145020,61.514431 657.117065,64.568878 
	C659.680298,68.539055 662.508362,72.530663 662.758911,78.078850 
	C664.647888,72.867500 667.405151,68.924309 672.030823,67.537857 
	C672.455139,64.859398 670.767761,64.029861 669.894165,63.071041 
	C665.882690,58.668377 666.241150,55.116653 670.496094,50.892570 
	C673.696838,47.714954 670.266052,43.520275 670.380310,39.754013 
	C670.412964,38.679272 668.136475,38.113056 666.531433,39.046490 
	C663.514832,40.800858 660.257141,42.281872 659.724426,48.029640 
	C656.287048,39.526737 651.093994,41.000381 645.803772,42.871525 
	C643.685059,43.620884 641.861450,42.698074 640.106384,41.747921 
	C638.457703,40.855377 636.770203,39.920708 634.904541,40.466740 
	C626.057800,43.055920 617.161438,45.518261 608.453613,48.521275 
	C604.169434,49.998718 602.701416,57.845020 605.076294,63.455799 
	C607.715454,69.690933 607.051575,70.527214 600.327454,71.463982 
	C596.702332,71.969009 593.826843,73.610764 590.798889,76.511307 
	C586.426636,80.699623 581.636230,86.144066 573.890564,84.656654 
	C585.104858,81.543777 589.505859,67.208389 603.622864,68.140892 
	C601.801697,63.440659 601.639648,59.193363 601.500854,54.922832 
	C601.418640,52.393246 600.184082,50.731777 597.331116,50.150146 
	C593.108276,49.289249 589.013489,47.885551 586.390320,43.120255 
	C582.967957,50.888996 576.277710,53.193691 569.724487,55.961643 
	C563.781006,58.472050 559.718384,63.489483 555.659973,68.331093 
	C554.870300,69.273186 554.895142,70.434822 555.015869,71.654251 
	C555.382385,75.356850 553.545105,76.004768 549.826050,74.583771 
	C552.761353,65.433929 557.246521,57.654552 566.194946,53.315804 
	C571.116577,50.929489 576.432800,49.412537 580.494446,45.373203 
	C582.654968,43.224564 584.669983,41.128445 585.787720,38.238136 
	C586.269348,36.992786 587.078491,35.764072 588.765442,36.239716 
	C590.069214,36.607311 590.670715,37.744251 590.513794,38.954159 
	C590.005676,42.873390 592.371338,42.961937 595.154968,42.649681 
	C597.671997,42.367336 599.949219,42.774239 602.385986,43.823326 
	C607.085999,45.846809 610.846802,42.015194 614.806152,40.592060 
	C623.946960,37.306477 632.963806,35.079926 642.637451,37.489975 
	C646.494568,38.450928 649.541016,34.916134 653.609192,35.776958 
	C658.596130,36.832176 663.520569,36.145485 668.359924,33.814430 
	C671.024536,32.530910 674.394348,34.856178 676.622192,35.964962 
	C679.795471,37.544281 675.470276,39.849861 675.017273,42.077408 
	C678.063782,48.334915 678.063782,48.334915 672.652039,55.560772 
	C676.074768,60.927551 679.916504,63.966263 687.365417,63.444656 
	C692.073547,63.114971 699.635620,62.820148 701.273865,70.913055 
	C701.589172,72.470444 703.439697,72.868477 704.923645,73.181709 
	C710.018250,74.257156 714.784119,76.195267 719.379089,78.596069 
	C720.929688,79.406250 722.479309,79.881226 724.041138,78.627007 
	C725.509155,77.448105 725.950012,75.928177 725.392700,74.163925 
	C723.619690,68.550781 726.090637,64.686928 730.754089,62.103771 
	C737.022217,58.631802 744.331177,56.446079 749.970520,61.553070 
	C755.088867,66.188293 761.241638,67.211151 766.963318,68.997299 
	C772.131958,70.610794 777.396423,72.267822 782.626648,73.835991 
	C785.877014,74.810570 788.529968,74.867348 791.653137,73.258064 
	C796.651367,70.682587 801.829834,70.407501 806.670166,74.117928 
	C809.452942,76.251038 812.699524,75.641380 815.689087,74.904404 
	C818.320557,74.255699 819.633850,74.852386 820.738464,77.329216 
	C824.296143,85.306526 825.228271,93.186516 820.760742,101.142212 
	C819.343689,103.665749 820.657471,105.798233 822.309814,107.444710 
	C826.598145,111.718025 829.088501,117.316330 833.148621,121.740509 
	C833.692688,122.333359 834.356079,123.220772 834.289795,123.906593 
	C833.692078,130.092743 838.679688,132.672134 842.019958,136.397110 
	C846.098145,140.945068 849.004761,146.281876 848.421326,152.540588 
	C847.950012,157.596680 849.123535,161.456314 853.591003,163.941818 
	C859.417786,167.183594 862.052185,172.730026 864.177551,178.544418 
	C864.919556,180.574249 865.307922,182.180847 867.874146,182.441788 
	C871.434570,182.803818 872.373718,186.652710 875.125488,188.514847 
	C882.967224,193.821365 891.733032,199.055527 892.676270,210.414566 
	C893.250061,217.324585 897.394592,218.986465 904.114197,216.758698 
	C910.652832,214.590927 917.465454,213.164398 924.239075,211.822556 
	C928.372864,211.003632 932.391357,210.315872 935.738403,207.479202 
	C937.151550,206.281540 938.840881,205.387802 940.753113,206.631897 
	C942.667725,207.877594 941.622986,209.589935 941.416992,211.161133 
	C938.088989,236.551788 927.273743,258.083618 908.133545,275.229401 
	C903.185425,279.661896 896.970154,282.372925 892.064148,287.032593 
	C888.175171,290.726349 884.283325,294.431763 881.321106,298.803406 
	C878.765747,302.574585 875.486206,305.650909 872.379944,308.702698 
	C866.291443,314.684387 863.334351,322.442383 858.933228,329.363770 
	C858.252625,330.434082 857.360229,332.517700 857.791199,332.973267 
	C863.568909,339.079865 858.479614,347.272095 861.942017,353.743713 
	C862.169617,354.169128 862.028564,354.854462 862.324280,355.171570 
	C869.228455,362.576996 864.219116,371.080536 864.645874,379.092346 
	C865.145935,388.482178 860.713440,395.214264 853.960083,400.949493 
	C852.535095,402.159637 851.017090,403.169312 849.212646,403.615662 
	C839.723022,405.963013 833.980591,413.985840 826.168274,418.877777 
	C824.739807,419.772278 823.978333,421.732025 822.880127,423.563080 
M829.579773,185.087219 
	C829.610840,179.534851 833.627930,174.906876 833.233459,169.210297 
	C833.156677,168.101944 834.359192,167.035828 835.558899,166.866608 
	C843.139709,165.797501 844.436829,161.134369 843.828918,154.308060 
	C843.170288,146.912598 841.598145,140.564835 834.236206,137.106888 
	C832.909546,136.483795 831.477234,135.693787 830.595581,134.582642 
	C826.688660,129.658646 826.877380,129.764130 821.904785,133.621902 
	C819.086182,135.808548 815.703308,139.556580 812.421875,138.131943 
	C806.432495,135.531677 800.458801,135.899063 794.397644,135.801743 
	C783.577515,135.628006 772.826660,134.177582 761.977417,134.325851 
	C757.882141,134.381805 756.718994,135.856445 756.868286,139.600204 
	C757.006165,143.058304 757.362366,146.692795 752.346558,147.604614 
	C750.215027,147.992142 750.435059,150.467163 750.409729,152.282425 
	C750.328125,158.112411 750.303345,163.943192 750.244568,169.773529 
	C750.226196,171.602020 750.468628,173.927979 748.023193,174.136490 
	C741.590759,174.684967 740.077271,179.967087 737.774048,184.415329 
	C736.752747,186.387604 734.797424,188.902069 736.200928,190.850113 
	C739.178406,194.982651 740.167297,199.960648 742.752625,204.210205 
	C744.711792,207.430603 747.325562,210.488037 745.922607,214.786667 
	C745.550232,215.927429 746.551514,216.561417 747.453857,217.067581 
	C750.150146,218.580200 752.824890,220.273544 756.381714,217.574844 
	C755.187439,221.785812 756.535706,224.756393 759.277222,227.266922 
	C763.492554,231.126953 766.995483,235.567444 770.313843,240.227234 
	C773.045471,244.063202 775.848877,247.601929 781.752747,247.638489 
	C784.887756,247.657898 789.140686,245.245712 791.835938,249.539978 
	C795.464722,255.321671 801.724609,254.935471 807.278381,255.054108 
	C809.963623,255.111481 813.519714,255.758453 815.796997,253.231674 
	C818.440430,250.298599 821.370361,249.329437 825.187073,250.530792 
	C826.210999,250.853088 827.787476,251.553894 828.762512,249.829636 
	C827.353699,247.338486 823.539856,248.259674 822.499329,244.776535 
	C820.839478,239.219833 817.202515,234.959717 811.677429,232.501587 
	C808.468689,231.074051 808.187256,228.295654 810.801880,225.989639 
	C815.467163,221.874908 815.576355,220.205185 811.414429,215.289993 
	C810.064087,213.695297 808.230103,212.308777 809.374817,209.755371 
	C811.904114,209.783539 812.092163,212.882980 814.712952,213.008774 
	C816.914246,211.141464 819.439392,209.492462 820.485474,205.889175 
	C821.468567,202.502899 823.478638,199.469772 826.478699,196.949585 
	C829.689209,194.252670 831.539490,190.358490 829.579773,185.087219 
M820.847717,130.166183 
	C821.908569,128.639008 823.645203,128.354507 825.233521,128.044449 
	C828.733154,127.361275 828.888123,124.878075 827.285522,122.918579 
	C820.271423,114.342644 817.049744,103.297112 809.098511,95.363693 
	C806.964050,93.233955 807.050903,90.152618 806.157837,87.501656 
	C805.669983,86.053581 806.570557,84.892540 807.852417,84.247009 
	C809.307190,83.514442 810.289917,84.276215 811.238403,85.435905 
	C813.094482,87.705383 815.092224,89.858948 817.102661,92.141502 
	C820.450745,84.978401 817.537903,79.847321 810.315918,79.799164 
	C808.645813,79.788040 806.757568,80.269409 805.433838,79.288918 
	C799.846619,75.150497 794.430237,77.721642 788.917664,79.325584 
	C785.022949,80.458786 781.470764,80.692444 777.576111,78.160873 
	C773.020142,75.199364 767.800293,73.146935 761.969666,74.127121 
	C760.164856,74.430527 758.655151,74.762039 758.532349,76.922455 
	C758.250793,81.874748 755.007446,86.563263 757.283752,91.779778 
	C757.584717,92.469421 757.535400,93.834518 756.060242,94.096802 
	C750.437073,86.420837 756.367859,79.190117 757.304932,71.784508 
	C753.510254,70.450409 749.439880,70.457550 746.833496,67.768204 
	C743.922119,64.764183 740.813965,64.123955 737.423096,65.981552 
	C733.986450,67.864235 730.122986,69.825073 731.908752,75.121376 
	C732.340393,76.401398 731.531982,77.697937 730.832825,78.863930 
	C727.638306,84.191513 722.866638,85.812370 716.674622,83.458031 
	C711.468689,81.478615 707.005249,77.763565 701.132202,77.229523 
	C699.260010,77.059280 697.258118,75.484619 696.815796,73.440346 
	C696.063171,69.962288 693.516541,69.687439 690.825500,69.347206 
	C687.210327,68.890129 683.584229,68.497665 679.988708,67.917389 
	C678.515869,67.679688 676.982178,66.832184 675.771667,68.170143 
	C672.923828,71.317871 667.377991,72.094276 667.419739,77.891830 
	C667.426819,78.879776 665.972839,80.092781 664.930115,80.827568 
	C662.967407,82.210663 662.753540,83.712532 663.437622,85.943916 
	C665.033875,91.150612 664.507324,96.552261 663.705872,101.774628 
	C662.763977,107.912170 664.236633,111.736366 669.678345,114.443039 
	C671.814453,115.505539 673.381531,117.074486 674.737183,119.090996 
	C677.084534,122.582748 687.622131,124.948853 691.205444,122.803497 
	C694.805603,120.647972 698.031189,120.315079 701.921631,122.466721 
	C709.635742,126.733116 717.646912,130.458725 725.481079,134.512817 
	C731.691467,137.726639 737.731384,141.280411 744.012329,144.344345 
	C749.845764,147.190002 753.598572,144.741760 753.709595,138.378693 
	C753.860657,129.719940 753.819519,121.053833 754.187195,112.404755 
	C754.348145,108.619469 753.869263,104.626762 755.700195,100.808693 
	C757.757385,102.221024 757.204163,104.040916 757.208557,105.565407 
	C757.223999,110.893631 757.101929,116.223206 756.969116,121.550705 
	C756.718140,131.610825 756.699951,131.609009 766.493958,131.707031 
	C769.991760,131.742035 773.531738,131.451279 776.979248,131.887466 
	C787.351501,133.199829 798.070679,130.794662 808.123352,133.936783 
	C813.547913,135.632355 816.954956,134.305023 820.847717,130.166183 
M628.976685,184.016464 
	C634.176880,182.410904 639.091309,182.231827 643.242371,186.604904 
	C643.732056,187.120789 644.930176,187.593628 645.452515,187.347916 
	C649.140198,185.613052 652.253296,187.449799 655.486145,188.690079 
	C656.724121,189.165054 658.105652,189.900391 659.278381,188.900681 
	C663.558777,185.251785 668.280457,185.591293 673.420532,186.525787 
	C676.694519,187.121017 680.835571,186.286316 681.309814,182.341812 
	C682.041870,176.253342 685.567444,172.040482 689.058472,167.654190 
	C690.413391,165.951767 691.996277,164.460876 692.059998,162.087875 
	C692.301270,153.103516 695.546753,143.995834 690.764526,135.219757 
	C689.469727,132.843750 691.110291,129.023270 686.728088,128.117813 
	C683.711548,127.494507 681.577209,124.494621 678.161560,124.431595 
	C676.629028,124.403320 675.147949,124.316856 673.863647,125.272774 
	C664.530457,132.219604 653.492676,136.645676 644.989624,144.824478 
	C642.917786,146.817291 640.655396,148.363388 637.529175,148.316193 
	C633.879150,148.261032 632.241760,150.356186 631.897766,153.909363 
	C631.482117,158.202927 631.126099,162.552322 630.108276,166.722321 
	C629.225769,170.338364 628.086304,175.104080 623.591675,175.115204 
	C615.911194,175.134247 609.079529,179.916580 601.188721,178.391205 
	C599.023193,177.972626 596.777405,179.555405 594.606140,180.420944 
	C588.895325,182.697372 585.009338,188.070816 578.826111,189.525726 
	C577.596008,189.815170 577.303284,191.204453 576.891235,192.286942 
	C575.979614,194.682083 574.461365,196.518890 572.445007,198.153717 
	C569.323914,200.684235 568.634277,204.297821 569.475464,208.021103 
	C569.865356,209.746841 571.504761,212.035187 573.265991,211.231384 
	C576.585571,209.716293 582.324829,211.640030 582.622742,205.240295 
	C582.710693,203.351746 584.081360,202.039902 586.011841,202.367630 
	C592.358093,203.444977 598.377747,199.958725 604.835449,201.350113 
	C607.495178,201.923203 610.181946,199.767838 612.402222,198.121841 
	C614.076599,196.880585 614.465027,194.418121 612.045959,193.798904 
	C607.071716,192.525635 607.566040,188.079269 606.153503,184.303162 
	C610.789062,188.979584 615.037354,194.175278 622.487244,193.432373 
	C624.644714,190.601685 624.789734,186.407242 628.976685,184.016464 
M868.299622,258.135193 
	C872.698120,260.244751 877.260376,260.306122 881.590820,258.346283 
	C885.042725,256.784027 888.478821,255.996918 892.197815,256.321075 
	C893.374817,256.423645 894.599426,256.649078 895.583191,255.912079 
	C900.045227,252.569305 904.457397,249.160004 909.530701,245.283112 
	C905.906799,243.341537 903.076721,241.644730 900.099976,240.263885 
	C890.720398,235.912781 883.186951,229.850113 880.155518,219.450394 
	C879.684204,217.833481 878.492004,217.696655 877.063721,217.605591 
	C872.068237,217.287033 870.825378,215.619598 872.932861,211.081650 
	C875.014099,206.599991 874.335022,203.262039 870.570435,200.161621 
	C868.400208,198.374161 866.586853,196.154404 864.604797,194.137146 
	C858.580566,188.005798 850.338074,188.434738 843.062256,188.518509 
	C838.331543,188.572983 830.709534,189.219620 830.795105,197.762589 
	C830.798828,198.132553 830.266418,198.706406 829.863403,198.851959 
	C824.562195,200.766357 823.148499,205.262558 822.328552,210.133804 
	C822.119873,211.373535 821.668701,212.565460 820.531006,212.933945 
	C817.179077,214.019485 817.056763,216.589203 817.297668,219.368454 
	C817.642944,223.352478 818.282593,227.437271 811.507690,228.781693 
	C816.158569,231.250397 819.548401,233.491730 821.387939,237.039505 
	C824.228821,242.518585 829.641785,245.684418 833.016113,250.638535 
	C833.700867,251.643723 834.717834,252.390228 835.913940,252.392014 
	C839.769531,252.397751 842.268066,254.903214 845.060425,256.992401 
	C849.508972,260.320770 854.221558,261.478912 859.317993,258.246979 
	C861.980469,256.558563 864.762512,255.674973 868.299622,258.135193 
M735.121826,201.798355 
	C739.376709,199.177307 735.857971,195.208160 734.742676,194.617065 
	C730.177917,192.197723 731.785950,189.321365 733.250305,186.372040 
	C735.737732,181.362274 737.223755,174.687500 742.253540,172.554611 
	C746.966187,170.556198 746.986816,168.071869 747.041504,164.399826 
	C747.095947,160.742645 747.382507,157.089264 747.546204,153.433273 
	C747.630249,151.555267 747.541504,149.722916 745.609192,148.657074 
	C730.459717,140.300903 715.355774,131.840607 699.577881,124.714806 
	C694.852966,122.580894 692.780273,124.882019 692.925171,130.234985 
	C693.052246,134.927048 696.744873,138.867920 696.348267,143.025452 
	C695.346130,153.530823 698.321167,165.363235 688.089600,173.464691 
	C687.242737,174.135208 686.974182,175.494553 686.311768,176.446823 
	C684.094116,179.634995 684.056213,182.418991 686.142761,186.052383 
	C688.194824,189.625824 692.607178,191.411667 692.895691,196.397354 
	C693.154053,200.862350 692.291138,205.685806 695.638855,209.118347 
	C693.299927,212.358932 689.520569,209.780441 687.424133,212.674774 
	C689.681030,215.947357 693.217224,218.118408 694.930481,221.789749 
	C695.562927,223.145157 697.205200,222.706650 698.562744,222.581696 
	C710.023804,221.526825 717.549500,212.361267 727.646118,208.504837 
	C728.077271,208.340195 728.361633,207.818588 728.747681,207.504181 
	C730.804626,205.828812 731.973755,203.223679 735.121826,201.798355 
M797.724976,467.311584 
	C798.217163,465.470978 800.437012,463.788147 798.477905,461.614716 
	C795.911377,462.060577 796.773254,463.755066 796.717163,465.151703 
	C796.624451,467.460541 796.030457,469.269562 793.123474,469.589111 
	C789.537476,469.983337 786.900696,469.004181 785.476318,465.585022 
	C784.018799,462.086243 786.769592,460.483856 788.773315,458.573425 
	C790.280640,457.136322 793.144165,456.874023 793.237427,454.255157 
	C793.408386,449.451447 794.057983,443.407959 790.587097,440.601868 
	C787.383667,438.011993 781.600769,437.140350 777.049133,438.037537 
	C767.835449,439.853668 761.661865,447.063446 756.036316,453.587677 
	C752.476562,457.716125 749.643066,459.217499 744.873047,458.318451 
	C742.804199,457.928467 740.776367,457.320953 738.826843,456.836334 
	C736.384094,459.967010 732.659424,463.232880 730.547424,464.155212 
	C725.426575,466.391602 722.083496,464.192291 722.405518,458.820831 
	C722.449524,458.087036 722.714539,457.159424 721.108643,456.847778 
	C721.108643,460.255493 721.174561,463.547028 721.093811,466.834991 
	C720.957947,472.367310 717.019409,476.237793 711.593811,476.240265 
	C709.871704,476.241058 707.774475,474.950745 706.684143,477.216156 
	C705.670410,479.322296 707.385559,480.982880 708.180542,482.749664 
	C708.905396,484.360535 710.537842,485.031311 711.806458,486.085663 
	C715.165649,488.877716 716.516235,492.400177 715.531189,496.738434 
	C714.009338,503.440186 719.235596,508.152527 725.974915,506.163544 
	C733.729004,503.875153 741.265198,500.852234 749.696411,501.614105 
	C756.461243,502.225342 762.804443,501.131714 768.277344,496.090027 
	C771.962219,492.695404 776.008728,489.476471 781.152283,487.909607 
	C783.779114,487.109436 785.899292,484.529938 786.560425,481.708862 
	C787.633301,477.130829 790.570007,474.157196 794.089050,471.537262 
	C795.438843,470.532379 796.789978,469.588654 797.724976,467.311584 
M855.578979,325.021729 
	C857.467102,321.462433 857.072632,318.901611 853.603516,316.039246 
	C849.789612,312.892426 844.925781,310.344604 843.661987,304.703979 
	C843.429932,303.668274 841.928589,302.686035 840.793213,302.121124 
	C833.331360,298.408447 826.335388,293.904572 819.366882,289.389282 
	C813.507263,285.592468 807.900879,287.373352 802.180237,289.328033 
	C800.610107,289.864502 800.733948,291.222626 800.642761,292.621643 
	C800.177490,299.759674 799.971497,307.031067 793.586304,312.038727 
	C792.897339,312.579071 792.464111,313.349701 792.790833,314.231506 
	C794.513306,318.880829 793.882202,324.065643 796.594910,328.565674 
	C801.081665,336.008606 804.921875,343.844574 814.496460,346.154419 
	C816.675476,346.680115 818.510315,348.375244 821.011475,348.315918 
	C823.675659,348.252686 825.322632,349.870636 826.138428,352.287689 
	C826.934875,354.647156 827.989075,357.017426 828.211670,359.448730 
	C828.509399,362.702057 830.269897,363.194611 833.031494,363.869659 
	C840.422791,365.676392 847.452576,362.918091 854.664185,362.790375 
	C856.506042,362.757751 858.652405,362.302795 858.163574,359.688141 
	C857.087341,353.932159 856.241760,347.836945 854.493408,342.578857 
	C852.382874,336.231476 851.901184,331.237122 855.578979,325.021729 
M733.368591,392.956848 
	C734.283875,397.924805 738.746338,403.662689 742.418640,403.490570 
	C747.908752,403.233246 752.829529,404.839233 757.914307,406.406342 
	C761.742676,407.586304 765.282959,407.563019 768.821594,404.120819 
	C774.270142,398.820770 778.997681,391.826996 788.316650,392.313934 
	C788.571228,387.939209 790.995544,386.406891 795.011475,385.714111 
	C799.551941,384.930847 803.898499,383.044159 808.347473,381.697144 
	C809.853088,381.241272 810.174927,380.165222 810.618469,378.801758 
	C812.458984,373.143219 816.513184,368.128052 815.429260,361.621155 
	C815.337219,361.068604 815.856506,360.385040 816.163147,359.799774 
	C818.999329,354.385895 818.279724,351.481445 812.928345,348.513092 
	C808.886597,346.271149 804.464722,344.681671 800.541443,342.266632 
	C793.933777,338.199188 784.976501,342.101318 784.459778,349.796631 
	C784.201172,353.647491 783.650574,357.296814 782.541199,361.010284 
	C781.596802,364.171692 781.763855,367.565582 786.771362,367.327484 
	C789.560730,367.194916 790.790833,368.894806 790.346436,371.476654 
	C789.953247,373.760864 790.486145,376.647461 787.048157,377.449646 
	C783.770874,378.214325 782.081482,376.691162 779.968506,374.322693 
	C776.616089,370.564911 773.661804,364.951813 766.794373,368.131866 
	C765.555786,368.705414 764.195129,368.117065 762.988586,367.439758 
	C760.388489,365.980103 757.745850,364.595734 755.155151,363.120026 
	C750.968567,360.735352 748.442810,362.048920 748.205566,366.779205 
	C747.814514,374.576996 746.960571,375.392578 739.338562,374.609436 
	C736.428772,374.310425 734.361633,374.743622 734.183167,378.213470 
	C733.944885,382.845490 733.637573,387.473938 733.368591,392.956848 
M832.750671,366.395386 
	C830.279785,366.571838 827.127197,366.257507 826.661682,369.425293 
	C826.054871,373.555267 824.519958,378.304962 828.808472,381.482239 
	C833.218750,384.749664 832.087097,388.715179 831.535706,393.146332 
	C830.941162,397.923492 825.524231,398.859894 824.607361,403.222961 
	C824.459290,403.927856 822.573425,402.988037 821.725464,402.119995 
	C818.622498,398.943481 816.517273,395.657715 819.443359,391.136292 
	C821.223267,388.385864 820.338989,387.021698 817.057617,385.827667 
	C812.354980,384.116486 808.013184,384.219147 803.474182,385.852600 
	C800.976379,386.751495 798.447937,387.576965 795.899170,388.318359 
	C794.309814,388.780762 792.337036,388.801025 792.445984,391.101868 
	C792.535767,392.997986 793.329773,394.688629 795.291748,395.434479 
	C798.399658,396.615936 801.522034,397.760345 804.652832,398.879700 
	C806.478943,399.532593 807.931091,400.485260 808.270569,402.582458 
	C809.484070,410.079895 806.632751,417.117584 805.040039,424.116760 
	C803.972778,428.806519 800.514587,433.345215 796.167053,436.504303 
	C795.057922,437.310303 794.191040,438.429260 794.382690,439.889191 
	C795.149902,445.733917 795.996338,451.568298 797.031128,458.961456 
	C802.786011,452.316071 809.452209,449.386566 815.961243,446.180084 
	C817.198120,445.570770 818.023071,444.344391 818.271179,443.034088 
	C819.321106,437.490204 820.444153,431.917328 817.587219,426.516693 
	C815.713440,422.974609 816.864014,420.437805 819.779297,417.838074 
	C823.380920,414.626312 827.841919,412.478668 831.121948,409.116760 
	C834.610535,405.541168 838.574768,403.224609 842.957214,401.192780 
	C846.251282,399.665527 849.784668,398.569489 852.551270,395.978851 
	C861.846741,387.275085 860.091370,375.963165 860.767029,364.455139 
	C855.458679,365.329285 850.846313,365.630981 846.561523,366.975983 
	C844.206055,367.715302 842.268860,368.383240 839.958984,367.367645 
	C837.938599,366.479340 835.783264,366.280243 832.750671,366.395386 
M874.700806,298.426300 
	C877.441895,298.611511 877.681396,296.240479 878.607605,294.586121 
	C880.736145,290.784546 883.151123,287.168427 886.868652,284.771484 
	C896.611511,278.489532 906.504944,272.552673 914.390503,263.704773 
	C923.701599,253.257446 928.588562,240.538544 934.046509,228.080917 
	C936.137268,223.308853 937.854858,218.291702 936.294312,212.843994 
	C924.986816,215.215729 914.596191,219.115417 904.026611,222.368790 
	C898.125366,224.185211 893.274841,223.358780 888.765381,219.392273 
	C887.915955,218.645142 887.287537,217.522736 885.556519,217.712280 
	C884.152588,218.921890 882.836548,220.296219 884.273376,222.585587 
	C887.374512,227.526657 890.462646,232.257370 896.069092,235.081833 
	C902.041443,238.090652 907.920959,241.344070 913.896667,243.762436 
	C913.583740,245.923904 912.616272,246.636185 911.706970,247.344772 
	C906.984009,251.025269 902.258667,254.703598 897.479248,258.309875 
	C896.723083,258.880463 895.599060,259.533630 894.794250,259.377930 
	C889.241211,258.303558 884.453308,260.593994 879.354675,262.152039 
	C872.637146,264.204773 869.749573,267.250092 869.942749,274.286072 
	C870.052429,278.280487 869.849792,282.345490 870.542114,286.244751 
	C871.259094,290.281921 869.449280,295.213440 874.700806,298.426300 
M868.699341,296.949158 
	C868.174255,285.686707 864.613342,274.314758 869.675842,262.823944 
	C867.294678,261.849152 865.139282,258.452759 861.623596,260.387695 
	C853.895325,264.641113 847.420837,261.407959 840.883484,257.522339 
	C834.428040,253.685440 827.250427,254.063019 820.278992,253.348969 
	C819.712830,256.125275 820.893616,257.558594 821.740295,258.819916 
	C826.148254,265.386688 826.635010,271.290436 820.929810,277.717255 
	C817.575928,281.495331 819.180359,286.149353 823.648926,288.740723 
	C829.680237,292.238342 835.522278,296.068115 841.913147,298.947235 
	C844.664185,300.186584 846.860535,302.035278 847.760986,305.308777 
	C848.990173,309.777313 853.238647,311.807129 856.352051,314.706299 
	C858.045166,316.282990 859.299255,315.064667 860.306885,313.450562 
	C862.773621,309.499298 865.300537,305.583557 868.770447,302.396454 
	C870.406921,300.893433 870.498352,299.285217 868.699341,296.949158 
M689.486267,238.823212 
	C690.076172,245.127625 692.451843,250.568695 697.231384,255.267731 
	C699.556580,252.520081 701.750610,249.431046 705.437805,250.117874 
	C708.959900,250.773987 709.617126,249.104294 710.478394,246.394775 
	C712.311707,240.626801 717.967224,238.862717 722.928772,242.012894 
	C726.193298,244.085587 730.872742,246.260513 733.484009,243.809097 
	C736.438110,241.035873 739.297241,240.330597 742.643494,240.254776 
	C749.377625,240.102142 755.893311,235.034012 762.856506,239.344193 
	C763.425537,239.696426 764.469604,239.182877 764.851746,238.174667 
	C764.161133,235.993164 761.625854,235.663177 760.421570,233.730835 
	C756.845459,227.992676 752.909058,222.492508 746.132812,219.934830 
	C743.206970,218.830490 741.498108,217.027618 742.848083,213.383850 
	C744.200073,209.734848 741.458679,207.304077 739.028015,205.486526 
	C736.221619,203.388092 734.169861,205.771286 732.264160,207.732346 
	C725.554321,214.637192 716.538940,218.038116 708.631287,223.120331 
	C705.891235,224.881348 702.679260,225.429520 699.316467,225.925491 
	C692.819397,226.883743 692.284851,233.515213 689.486267,238.823212 
M748.988525,455.773682 
	C750.425720,455.679169 751.403015,454.895813 752.288940,453.802246 
	C757.560120,447.295929 763.419556,441.448242 770.905273,437.455139 
	C771.762573,436.997803 772.789490,436.680573 773.044739,435.107178 
	C769.446167,433.685272 766.846924,431.230530 766.443604,426.951111 
	C766.367310,426.141754 765.435120,425.069122 764.636902,424.727539 
	C759.404968,422.488281 757.086792,417.839722 755.043945,413.098541 
	C753.442871,409.382599 751.211731,408.650818 747.530579,409.966095 
	C745.341003,410.748444 743.251099,411.866425 740.415161,410.693085 
	C732.183533,407.287476 727.127869,410.827057 727.013489,419.570282 
	C726.987366,421.567139 726.952637,423.564850 726.981262,425.561310 
	C727.037231,429.455994 728.236328,433.897156 722.296936,434.771210 
	C721.948608,434.822449 721.453125,435.478363 721.428040,435.878021 
	C721.108582,440.976624 719.718140,446.332489 722.151123,451.050018 
	C723.905823,454.452362 725.870422,457.549011 725.210205,461.403290 
	C727.455261,462.329590 729.075378,461.773712 730.706116,460.703217 
	C739.002747,455.256989 739.014160,455.274414 748.988525,455.773682 
M802.343628,424.380188 
	C803.205933,419.738861 803.166016,415.057892 805.198242,410.451172 
	C806.312805,407.924713 807.827393,402.935211 803.116455,400.837402 
	C798.590332,398.821899 793.953186,396.921509 789.187073,395.622650 
	C785.502441,394.618500 781.446411,394.333710 779.369080,398.947174 
	C778.782166,400.250702 777.745911,401.011017 776.371826,401.362122 
	C773.990784,401.970520 772.446533,403.432648 771.068298,405.531677 
	C768.694275,409.147675 764.973083,410.397980 760.722168,409.897156 
	C759.571960,409.761597 758.450989,409.241882 757.329041,410.587616 
	C758.613464,415.210907 760.595520,419.412842 765.266418,421.855804 
	C766.860962,422.689758 769.087158,423.418915 769.107056,425.442535 
	C769.157776,430.600403 773.294556,431.846497 776.625610,433.720917 
	C785.766907,438.864685 793.146118,437.307190 799.149109,429.196564 
	C800.138916,427.859253 801.034607,426.452423 802.343628,424.380188 
M816.660461,278.531342 
	C818.038513,276.670898 819.346069,274.752960 820.808289,272.961182 
	C824.572388,268.348724 821.220337,264.736511 819.461853,260.673737 
	C817.917847,257.106415 815.461609,257.658417 812.556274,257.706696 
	C809.913452,257.750610 807.341980,258.991821 804.663452,258.114685 
	C803.094666,257.600952 801.420105,256.836639 800.249146,258.804749 
	C799.210754,260.550018 799.228516,262.267303 800.572510,263.887634 
	C803.475037,267.386932 802.003540,269.973816 798.806641,272.160614 
	C793.487488,275.799011 793.767334,281.232025 793.528320,286.769867 
	C800.030090,287.612244 805.287231,284.040771 811.038330,284.133362 
	C814.631958,284.191223 816.256226,282.692444 816.660461,278.531342 
M835.421204,175.301758 
	C834.867493,176.686691 834.321899,178.074951 833.758057,179.455780 
	C832.961548,181.406403 831.249023,183.606644 833.573853,185.303802 
	C835.589661,186.775345 838.189392,187.493622 840.405151,185.279617 
	C842.052185,183.633865 843.463806,184.422897 845.322571,185.057220 
	C850.399048,186.789581 855.866211,185.889069 861.191772,187.841110 
	C860.853577,180.493927 856.241272,176.170303 853.144958,171.336243 
	C851.354980,168.541626 847.450867,165.653900 843.298584,167.131119 
	C839.828735,168.365601 835.025696,168.942047 835.421204,175.301758 
M815.235718,374.459045 
	C812.345703,379.227386 812.834229,381.323181 817.221924,382.979950 
	C824.154602,385.597687 824.323669,385.917084 821.461609,393.259277 
	C820.600525,395.468201 820.632751,397.105621 823.146301,397.954254 
	C831.930847,391.946594 832.164062,390.463501 825.709106,382.387451 
	C824.322815,380.653046 823.599426,378.578522 823.382751,376.430328 
	C822.993774,372.573944 823.994446,368.899292 825.145691,365.237823 
	C826.681030,360.354797 824.389343,353.694214 820.775696,352.319183 
	C820.089722,354.374359 821.668030,356.790070 820.136230,358.559998 
	C817.404480,361.716614 816.855164,365.293457 817.332031,369.243195 
	C817.542236,370.984497 816.776917,372.479553 815.235718,374.459045 
M611.379150,219.747742 
	C611.140442,223.230667 610.879578,226.712280 610.673279,230.197128 
	C610.582031,231.737717 609.494568,234.003143 611.850647,234.365463 
	C614.323486,234.745758 614.649353,232.448349 614.597473,230.560516 
	C614.388245,222.955292 615.721008,216.081772 620.499695,209.611862 
	C623.930908,204.966309 621.765991,198.686829 617.253723,196.620255 
	C615.946350,199.821960 613.663330,201.844833 610.193665,202.907028 
	C608.123047,203.540924 606.275391,205.871964 608.078064,208.043182 
	C610.786499,211.305252 610.180603,215.272675 611.379150,219.747742 
M875.992981,214.213272 
	C881.480652,215.300552 884.046204,211.393158 887.241272,208.199600 
	C884.357605,204.548798 880.959534,202.217957 877.949951,199.459106 
	C870.969299,193.060043 871.086243,192.932465 868.462463,193.683380 
	C872.787964,197.339447 874.287964,203.568237 881.529480,203.660675 
	C879.243958,207.140915 875.014343,209.122345 875.992981,214.213272 
M792.121948,291.520660 
	C790.437439,292.662201 788.511536,293.845520 790.065796,296.226562 
	C791.257446,298.052155 792.960999,297.337921 794.458435,296.433228 
	C796.145752,295.413788 798.325317,294.502350 797.329895,291.952148 
	C796.344788,289.428375 794.462097,290.431519 792.121948,291.520660 
M793.470825,463.173126 
	C793.580872,460.904999 793.476685,458.801941 790.382446,460.747772 
	C789.139465,461.529449 787.980591,462.651184 788.474915,464.353363 
	C788.674927,465.042267 789.324707,465.992462 789.908081,466.104584 
	C791.641174,466.437653 792.383911,464.922699 793.470825,463.173126 
z"/>
<path fill="#000000" opacity="1.000000" stroke="none" 
	d="
M876.787842,432.781006 
	C876.441406,429.746948 877.065674,427.105530 878.768127,425.359894 
	C884.491699,419.491455 884.841797,412.648926 883.658691,405.110291 
	C882.592224,398.314026 886.347717,392.632721 892.901489,390.400970 
	C897.499817,388.835114 901.790771,386.717682 905.882751,384.140533 
	C907.599182,383.059448 909.278748,381.883179 909.866150,379.849731 
	C910.758301,376.760986 912.502625,374.552673 915.580994,373.462616 
	C917.430908,372.807556 917.646484,371.132233 918.176514,369.523926 
	C919.219727,366.358521 921.176208,363.857727 924.131348,362.026794 
	C927.806091,369.885590 929.776123,377.596741 930.099365,385.731079 
	C930.155823,387.152405 929.896057,388.445496 929.045044,389.474792 
	C922.522217,397.363464 920.074036,407.232605 916.348816,416.394257 
	C912.182617,426.640259 906.400208,435.940826 901.179565,445.567352 
	C898.249634,450.969849 885.997742,452.866516 881.158569,449.097015 
	C879.024109,447.434479 878.156311,444.917633 878.412476,442.434479 
	C878.753967,439.124908 877.736450,436.207886 876.787842,432.781006 
M920.648804,389.503937 
	C920.758362,387.764343 921.742615,386.445923 922.618835,385.016083 
	C924.829529,381.408813 924.037048,377.743988 922.955017,372.552734 
	C920.629211,376.908539 917.384277,378.540436 915.704529,381.161438 
	C910.988159,388.520630 904.206543,392.166595 896.101013,394.353210 
	C890.024536,395.992462 887.182861,399.919861 888.376221,406.179596 
	C889.878235,414.057892 888.922058,420.826874 883.269714,426.789062 
	C881.519409,428.635315 880.797546,431.097015 881.646973,433.757721 
	C882.455505,436.290070 882.908386,438.781830 882.653687,441.557648 
	C882.342346,444.951294 886.199097,447.950500 889.426453,446.931580 
	C894.295410,445.394379 899.252502,443.866150 901.127625,438.071716 
	C902.091492,435.093170 903.739014,432.334869 905.089172,429.482513 
	C911.111084,416.761108 917.679077,404.256622 920.648804,389.503937 
z"/>
<path fill="#000000" opacity="1.000000" stroke="none" 
	d="
M657.934692,231.699249 
	C660.718933,229.703857 663.375732,228.707474 666.060852,230.735168 
	C668.155518,232.317062 669.213501,229.490906 670.943604,229.891449 
	C670.190247,234.959595 668.859558,235.786194 664.877075,233.737930 
	C664.436157,233.511154 664.018250,233.070038 663.573120,233.046921 
	C657.755066,232.744888 655.876160,237.702423 653.498901,241.346008 
	C651.846619,243.878464 650.622375,247.486450 654.527588,250.075241 
	C657.314453,251.922729 658.481323,254.721039 658.420349,257.909515 
	C656.565369,258.860046 655.568237,257.442261 654.242249,257.409637 
	C648.412537,257.266235 648.414001,257.205902 650.953979,251.944626 
	C649.587830,249.832489 647.620117,250.309906 645.620056,250.653915 
	C642.676941,251.160080 639.725159,251.653381 636.757751,251.971939 
	C633.217712,252.351944 630.649658,251.159744 629.748718,246.456726 
	C635.328979,249.454803 640.468750,247.982346 645.656860,247.040939 
	C648.169800,246.584946 649.111511,245.311676 649.772095,242.869736 
	C650.995422,238.347717 653.498779,234.472946 657.934692,231.699249 
z"/>
<path fill="#000000" opacity="1.000000" stroke="none" 
	d="
M554.085938,104.751099 
	C557.853760,104.792885 561.106934,105.353905 562.036255,100.468414 
	C562.691528,97.024063 561.609436,96.356758 558.650024,96.293961 
	C556.805176,96.254822 554.697144,97.016701 553.078369,95.242348 
	C559.656921,91.626137 564.672241,93.415581 569.414490,101.012672 
	C568.045166,102.480659 566.622681,100.374771 565.164612,101.133530 
	C565.021790,101.280663 564.610046,101.503380 564.595703,101.749290 
	C564.297485,106.855629 561.054626,107.946350 556.720459,107.597183 
	C555.561951,107.503853 554.391052,107.316254 553.241638,107.396790 
	C545.307800,107.952629 543.157410,108.260933 542.986145,116.063255 
	C542.900208,119.978355 542.160889,123.945061 537.168030,125.372391 
	C534.325562,126.184990 533.696777,129.083740 533.397644,131.872635 
	C532.695068,138.424698 530.536072,139.570007 524.031006,136.703354 
	C525.765747,134.798203 528.886353,136.480087 530.199524,134.216705 
	C531.402100,132.143967 531.290527,129.740982 531.807373,127.496887 
	C532.081116,126.308418 532.974121,124.710457 533.977661,124.332054 
	C540.369629,121.921822 540.551575,116.058784 541.445435,110.848717 
	C542.074524,107.182625 543.554504,105.572113 547.236572,105.575684 
	C549.371948,105.577751 551.507935,105.059631 554.085938,104.751099 
z"/>
<path fill="#000000" opacity="1.000000" stroke="none" 
	d="
M641.825806,287.667908 
	C642.314026,291.295319 641.586060,294.760437 641.860046,297.752655 
	C642.292847,302.477997 643.017517,307.935577 647.256897,311.489929 
	C650.826416,314.482574 654.884644,316.889801 658.012207,320.412231 
	C659.080627,321.615631 660.649231,322.547516 660.495056,324.491638 
	C659.488342,325.510651 658.591187,324.898193 657.822083,324.295135 
	C652.206726,319.892487 647.255249,314.641876 640.867065,311.216553 
	C639.718933,310.600922 638.407532,309.028259 639.031067,307.943878 
	C641.624817,303.433136 637.997437,300.417206 636.725952,296.870697 
	C635.681702,293.957733 637.455078,287.922089 640.059753,286.542938 
	C640.735107,286.185364 641.288940,286.767883 641.825806,287.667908 
z"/>
<path fill="#000000" opacity="1.000000" stroke="none" 
	d="
M643.125916,283.469910 
	C640.074463,281.325226 642.491699,279.007538 642.993408,276.917480 
	C643.859863,273.307709 644.220581,270.449280 639.840698,268.939301 
	C636.524780,267.796112 636.653137,264.266632 634.762756,260.805786 
	C640.801880,261.737549 644.170776,265.109711 647.201416,268.781769 
	C650.243164,272.467255 647.959167,275.997375 646.255066,279.371490 
	C645.529968,280.807068 644.389282,282.032715 643.125916,283.469910 
z"/>
<path fill="#000000" opacity="1.000000" stroke="none" 
	d="
M522.131287,101.115746 
	C526.544495,96.958710 531.791809,95.165443 537.379761,92.084663 
	C536.605408,94.803940 516.820251,110.530853 514.645203,110.788391 
	C516.304749,106.827621 519.950073,104.716316 522.131287,101.115746 
z"/>
<path fill="#000000" opacity="1.000000" stroke="none" 
	d="
M548.062012,257.917908 
	C546.299622,256.200928 547.846680,255.846115 548.855408,255.596146 
	C555.883911,253.854309 562.930969,252.186584 569.985901,250.554779 
	C570.330872,250.474991 570.804932,250.953125 572.309448,251.746613 
	C564.312866,255.998062 556.299194,256.816925 548.062012,257.917908 
z"/>
<path fill="#000000" opacity="1.000000" stroke="none" 
	d="
M882.750244,369.294403 
	C881.164124,366.717285 879.871155,364.347351 878.063538,361.033936 
	C882.658081,361.487335 885.618408,362.616943 886.450867,366.496216 
	C886.963379,368.884705 885.807556,370.342377 882.750244,369.294403 
z"/>
<path fill="#000000" opacity="1.000000" stroke="none" 
	d="
M936.721802,432.719482 
	C939.093201,432.172455 941.089233,432.191589 942.024414,434.430756 
	C942.568542,435.733582 942.145691,437.075500 940.805359,437.808350 
	C939.380615,438.587341 937.858887,438.385376 936.614014,437.479401 
	C934.765442,436.134186 934.835693,434.510590 936.721802,432.719482 
z"/>
<path fill="#000000" opacity="1.000000" stroke="none" 
	d="
M959.188721,427.443970 
	C959.150452,430.505890 957.875732,431.982788 955.125793,431.008545 
	C953.516663,430.438416 953.710999,428.890106 954.519104,427.655518 
	C955.778320,425.731873 957.244080,424.549744 959.188721,427.443970 
z"/>
<path fill="#000000" opacity="1.000000" stroke="none" 
	d="
M516.398682,240.909790 
	C514.851257,239.170639 512.585144,238.202423 512.818420,235.216782 
	C516.049988,235.373795 517.319336,237.624496 518.247314,239.994476 
	C518.621460,240.950043 517.624878,241.323334 516.398682,240.909790 
z"/>
<path fill="#000000" opacity="1.000000" stroke="none" 
	d="
M488.188232,141.765869 
	C488.834869,139.203552 489.961914,137.352295 492.259705,136.150284 
	C492.751556,140.441574 491.794891,141.754593 488.188232,141.765869 
z"/>
<path fill="#000000" opacity="1.000000" stroke="none" 
	d="
M493.294861,192.009613 
	C491.849640,190.229233 490.798309,188.502365 490.724976,186.235596 
	C495.400635,187.748489 495.855072,188.759033 493.294861,192.009613 
z"/>
<path fill="#000000" opacity="1.000000" stroke="none" 
	d="
M491.730316,212.132721 
	C491.159302,211.100357 490.682526,210.315948 491.403290,209.585220 
	C492.184204,208.793503 493.003204,209.300934 493.501465,209.933075 
	C494.766998,211.538422 496.630981,212.848679 496.551483,215.568161 
	C494.055725,215.716415 493.347656,213.502640 491.730316,212.132721 
z"/>
<path fill="#000000" opacity="1.000000" stroke="none" 
	d="
M769.979675,217.620605 
	C771.973450,217.797409 773.808594,217.565720 775.217529,218.233490 
	C779.232361,220.136307 782.631714,219.057129 785.921326,216.705719 
	C787.598328,215.507034 789.518311,214.203217 791.430725,215.263260 
	C796.994385,218.346985 800.117676,215.351669 802.973816,211.170639 
	C803.222473,210.806488 803.768982,210.645798 804.210388,210.369873 
	C806.157227,211.578201 805.146118,212.984268 804.512817,214.244949 
	C802.407043,218.436279 796.521912,220.667450 792.106384,218.852005 
	C790.565918,218.218643 789.293701,218.082321 787.922058,219.111893 
	C783.475037,222.449997 778.769958,223.616379 773.515686,220.918655 
	C772.708191,220.504074 771.574097,220.660431 770.591370,220.663162 
	C765.477722,220.677338 763.689392,218.835464 763.323792,213.008316 
	C766.905334,212.558517 766.339600,217.786453 769.979675,217.620605 
z"/>
<path fill="#000000" opacity="1.000000" stroke="none" 
	d="
M761.480286,485.831543 
	C758.877380,481.509003 760.357666,478.528351 766.252197,475.511383 
	C769.912903,473.637787 773.361450,474.745331 774.972290,478.322723 
	C775.174316,478.771393 775.518555,479.283508 775.447693,479.707947 
	C774.703735,484.162476 770.761108,485.324219 767.588806,487.326721 
	C765.145752,488.868866 763.234924,488.595520 761.480286,485.831543 
M769.426208,477.430389 
	C767.063171,477.510986 765.746399,479.409912 764.024719,480.583099 
	C762.021667,481.948059 762.673828,483.682587 764.265198,484.483429 
	C767.132935,485.926544 769.213196,483.530609 771.078491,481.997528 
	C773.022034,480.400085 772.451782,478.537811 769.426208,477.430389 
z"/>
</svg>