<svg width="91" height="88" version="1.1" xmlns="http://www.w3.org/2000/svg" desc="Created with imagetracer.js version 1.2.6" ><path fill="rgb(0,0,0)" stroke="rgb(0,0,0)" stroke-width="1" opacity="0" d="M 0 0 L 90.5 0 L 91 0.5 L 91 24 L 5.5 24 L 4 25.5 L 0.5 44 L 0 0 Z " /><path fill="rgb(0,0,0)" stroke="rgb(0,0,0)" stroke-width="1" opacity="0" d="M 90.5 25 L 91 88 L 59.5 88 Q 58.5 88 59 83.5 L 58 82.5 L 58 53.5 L 59 52.5 L 59 44.5 L 61 33 Q 67.7 31.9 70 36.5 L 71 47 L 84.5 47 L 85 45.5 L 88 38.5 L 90.5 25 Z " /><path fill="rgb(0,0,0)" stroke="rgb(0,0,0)" stroke-width="1" opacity="0" d="M 25.5 33 L 26 62.5 L 27 63.5 L 27 72.5 L 30 88 L 0 88 L 0 47 L 13.5 47 L 14 44.5 L 21.5 35 L 25.5 33 Z " /><path fill="rgb(98,175,167)" stroke="rgb(98,175,167)" stroke-width="1" opacity="0.6784313725490196" d="M 42.5 72 Q 47 71 48 73.5 L 49 79.5 Q 47.3 82.8 41.5 82 Q 38.2 80.3 39 74.5 L 42.5 72 Z " /><path fill="rgb(14,117,109)" stroke="rgb(14,117,109)" stroke-width="1" opacity="0.9803921568627451" d="M 5.5 24 L 91 24.5 L 85 47 L 71 47 L 71 38.5 L 67.5 34 L 61 33 L 59 44.5 L 59 52.5 L 58 53.5 L 58 82.5 L 59 88 L 30.5 88 L 30 85.5 L 28 79.5 L 27 63.5 L 26 62.5 L 25.5 33 L 16 40.5 L 14 47 L 0.5 47 L 0 44.5 L 4 25.5 L 5.5 24 Z M 43 72 L 39 75 Q 38 80 42 82 Q 47 83 49 80 L 48 74 Q 47 71 43 72 Z " /></svg>